<svg width="4024" height="280" viewBox="0 0 4024 280" fill="none" xmlns="http://www.w3.org/2000/svg">
<g filter="url(#filter0_d_359_3)">
<path d="M16 175.445L44.8311 170.145C73.9394 164.445 132.433 154.445 190.65 143.445C247.481 132.445 304.311 122.445 362.528 138.145C421.022 154.445 478.961 196.445 537.178 186.145C594.563 175.445 653.611 111.445 709.056 95.4446C768.104 79.4446 825.489 111.445 883.706 122.145C941.645 132.445 1000.14 122.445 1058.36 138.145C1115.19 154.445 1172.02 196.445 1230.23 202.145C1288.73 207.445 1346.67 175.445 1404.88 143.445C1462.27 111.445 1521.32 79.4446 1576.76 58.1446C1635.81 36.4446 1693.19 26.4446 1751.41 52.7446C1809.63 79.4446 1867.84 143.445 1926.06 154.145C1983.17 164.445 2039.72 122.445 2097.94 127.445C2156.71 132.445 2214.37 186.445 2272.59 202.145C2330.25 218.445 2389.02 196.445 2447.24 148.745C2503.79 100.445 2560.9 26.4446 2619.12 42.1446C2677.33 58.4446 2735.55 164.445 2793.77 212.745C2850.87 260.445 2907.43 250.445 2965.64 228.745C3024.42 207.445 3082.08 175.445 3140.29 164.745C3197.96 154.445 3256.73 164.445 3314.94 164.745C3371.5 164.445 3428.61 154.445 3486.82 148.745C3545.04 143.445 3603.26 143.445 3661.47 116.745C3718.86 90.4446 3777.91 36.4446 3833.35 26.1446C3892.4 15.4446 3949.78 47.4446 3980.28 63.4446L4008 79.4446V271.445H3979.17C3950.06 271.445 3891.57 271.445 3833.35 271.445C3776.52 271.445 3719.69 271.445 3661.47 271.445C3602.98 271.445 3545.04 271.445 3486.82 271.445C3429.44 271.445 3370.39 271.445 3314.94 271.445C3255.9 271.445 3198.51 271.445 3140.29 271.445C3082.36 271.445 3023.86 271.445 2965.64 271.445C2908.81 271.445 2851.98 271.445 2793.77 271.445C2735.27 271.445 2677.33 271.445 2619.12 271.445C2561.73 271.445 2502.68 271.445 2447.24 271.445C2388.19 271.445 2330.81 271.445 2272.59 271.445C2214.37 271.445 2156.16 271.445 2097.94 271.445C2040.83 271.445 1984.28 271.445 1926.06 271.445C1867.29 271.445 1809.63 271.445 1751.41 271.445C1693.75 271.445 1634.98 271.445 1576.76 271.445C1520.21 271.445 1463.1 271.445 1404.88 271.445C1346.67 271.445 1288.45 271.445 1230.23 271.445C1173.13 271.445 1116.57 271.445 1058.36 271.445C999.584 271.445 941.922 271.445 883.706 271.445C826.043 271.445 767.272 271.445 709.056 271.445C652.502 271.445 595.394 271.445 537.178 271.445C478.961 271.445 420.744 271.445 362.528 271.445C305.143 271.445 246.094 271.445 190.65 271.445C131.602 271.445 74.2167 271.445 43.7222 271.445H16V175.445Z" fill="#3F3D56"/>
</g>
<defs>
<filter id="filter0_d_359_3" x="0" y="0" width="4024" height="279.444" filterUnits="userSpaceOnUse" color-interpolation-filters="sRGB">
<feFlood flood-opacity="0" result="BackgroundImageFix"/>
<feColorMatrix in="SourceAlpha" type="matrix" values="0 0 0 0 0 0 0 0 0 0 0 0 0 0 0 0 0 0 127 0" result="hardAlpha"/>
<feOffset dy="-8"/>
<feGaussianBlur stdDeviation="8"/>
<feComposite in2="hardAlpha" operator="out"/>
<feColorMatrix type="matrix" values="0 0 0 0 0 0 0 0 0 0 0 0 0 0 0 0 0 0 0.25 0"/>
<feBlend mode="normal" in2="BackgroundImageFix" result="effect1_dropShadow_359_3"/>
<feBlend mode="normal" in="SourceGraphic" in2="effect1_dropShadow_359_3" result="shape"/>
</filter>
</defs>
</svg>
